<svg width="96" height="96" viewBox="0 0 96 96" fill="none" xmlns="http://www.w3.org/2000/svg">
<path d="M0 10.4727C0 4.6888 4.6888 0 10.4727 0H85.5273C91.3112 0 96 4.6888 96 10.4727V85.5273C96 91.3112 91.3112 96 85.5273 96H10.4727C4.6888 96 0 91.3112 0 85.5273V10.4727Z" fill="#FBFAF9"/>
<path d="M0 10.4727C0 4.6888 4.6888 0 10.4727 0H85.5273C91.3112 0 96 4.6888 96 10.4727V85.5273C96 91.3112 91.3112 96 85.5273 96H10.4727C4.6888 96 0 91.3112 0 85.5273V10.4727Z" fill="#FBFAF9"/>
<path d="M27.3285 76.8254V54.8832H32.876V76.8254H27.3285ZM19.1312 68.6281V63.0805H41.0733V68.6281H19.1312Z" fill="#9B9DA5"/>
<path d="M32.8518 49.2313V25.9726H38.7322V49.2313H32.8518ZM24.1627 40.5421V34.6617H47.4214V40.5421H24.1627Z" fill="#585B67"/>
<path d="M61.6518 41.8131V18.5544H67.5322V41.8131H61.6518ZM52.9627 33.1239V27.2436H76.2214V33.1239H52.9627Z" fill="#585B67"/>
<path d="M56.4613 73.5988V49.4625H62.5636V73.5988H56.4613ZM47.4443 64.5818V58.4795H71.5807V64.5818H47.4443Z" fill="#DA724B"/>
</svg>
